<?xml version="1.0" standalone="no"?>
<!DOCTYPE svg PUBLIC "-//W3C//DTD SVG 20010904//EN"
 "http://www.w3.org/TR/2001/REC-SVG-20010904/DTD/svg10.dtd">
<svg version="1.0" xmlns="http://www.w3.org/2000/svg"
 width="600.000000pt" height="600.000000pt" viewBox="0 0 600.000000 600.000000"
 preserveAspectRatio="xMidYMid meet">
<metadata>
Created by potrace 1.11, written by Peter Selinger 2001-2013
</metadata>
<g transform="translate(0.000000,600.000000) scale(0.100000,-0.100000)"
fill="#000000" stroke="none">
<path d="M2735 5989 c-692 -60 -1358 -372 -1855 -869 -1172 -1171 -1172 -3069
0 -4240 1171 -1172 3069 -1172 4240 0 817 816 1092 2028 709 3115 -455 1292
-1727 2112 -3094 1994z m1726 -1020 c138 -30 204 -205 113 -300 -16 -16 -77
-57 -136 -90 -125 -70 -169 -114 -336 -334 -200 -264 -347 -506 -523 -860
-208 -417 -281 -656 -296 -967 -7 -137 4 -190 47 -236 l20 -22 53 21 c175 68
520 302 895 606 166 136 181 155 238 316 32 88 63 131 115 158 48 24 196 43
232 30 27 -11 84 -99 112 -172 25 -69 16 -142 -39 -292 -84 -233 -128 -445
-145 -707 -6 -85 -20 -344 -32 -575 -23 -454 -23 -455 -82 -499 -42 -31 -174
-30 -235 2 -62 33 -130 99 -157 152 -50 99 -53 165 -21 440 8 69 24 211 36
315 11 105 24 223 28 262 8 66 7 71 -7 60 -9 -8 -47 -40 -86 -73 -264 -223
-682 -444 -842 -444 -61 0 -149 22 -211 54 -146 74 -297 259 -343 421 -23 83
-19 309 9 433 74 329 283 834 512 1233 196 342 454 704 620 869 180 179 304
233 461 199z m-3033 -230 c29 -15 51 -35 70 -67 l27 -47 -2 -310 c-1 -320 -10
-526 -44 -1060 -22 -359 -42 -923 -37 -1108 l3 -128 90 47 c50 25 205 122 345
214 140 92 269 174 285 182 34 17 163 38 233 38 102 -1 176 -81 177 -191 0
-43 -5 -62 -20 -79 -18 -20 -631 -458 -796 -568 -134 -89 -261 -164 -374 -218
-173 -85 -205 -77 -322 78 l-73 96 0 123 c0 313 23 716 70 1284 65 763 81
1157 61 1479 -9 146 -9 192 0 203 16 18 65 44 104 54 47 12 155 0 203 -22z"/>
</g>
</svg>
